<svg width="550" height="550" viewBox="0 0 550 550" fill="none" xmlns="http://www.w3.org/2000/svg">
<path d="M181.384 3.44037C169.131 12.4297 158.491 25.6362 152.902 38.9538C150.107 45.2796 149.892 47.2772 149.892 58.2642C149.892 69.0291 150.215 71.2487 152.794 77.6855C156.449 86.6749 161.178 93.9995 169.024 102.878C173.968 108.427 175.043 110.313 175.043 113.643C175.043 117.86 173.968 118.637 171.926 116.084C171.281 115.197 168.164 113.421 165.155 112.089C158.168 108.982 148.173 109.426 142.261 113.088L138.392 115.419L135.275 111.756C125.064 99.7704 106.578 97.9948 94.5397 107.872C89.7031 111.978 83.6842 122.854 83.6842 127.848C83.6842 130.845 83.4692 130.956 78.5251 130.956C67.777 130.956 56.384 140.167 53.4821 151.265C51.8699 157.48 52.7297 166.247 55.4167 171.685L57.6738 176.124L53.4821 180.119C47.1407 186.334 44.5612 192.327 44.4537 200.873V208.086L32.0934 208.197C18.5508 208.419 5.76059 211.194 1.7838 214.967C-0.150856 216.743 -0.258336 217.741 0.279068 224.178C2.75113 249.038 15.1114 270.901 31.7709 280.001C35.7477 282.109 42.0891 284.551 45.8509 285.328C53.912 286.882 69.7117 286.105 78.3101 283.552C83.6842 281.998 84.544 281.998 88.1984 283.663C93.035 285.883 93.3574 286.882 89.4881 287.88C85.5113 288.99 77.7727 296.759 75.1932 302.419C73.9034 305.193 72.9361 309.632 72.9361 312.407C72.9361 316.957 72.7211 317.401 70.0341 318.067C59.0711 320.397 52.4073 325.28 47.6781 334.159C44.9911 339.264 44.5612 341.372 44.5612 348.475C44.4537 358.13 46.8183 363.79 53.4821 370.338L57.6738 374.333L55.0943 379.993C47.0332 397.861 59.716 419.28 78.7401 419.724C83.3617 419.724 83.4692 419.835 84.1141 424.163C84.544 426.605 85.7263 430.489 86.9086 432.819C89.0582 437.259 98.0866 446.137 100.451 446.137C103.353 446.137 103.031 448.578 99.3764 454.793C94.9697 462.007 91.2078 471.44 88.5208 481.317C85.9413 490.751 87.1236 492.526 98.9464 496.965C111.092 501.405 119.045 502.958 129.901 502.958C155.051 502.847 173.323 487.643 182.137 459.454C185.468 448.8 186.113 447.691 190.09 445.582L192.885 444.028L192.992 450.909C192.992 454.682 193.745 459.565 194.604 461.785C196.754 466.779 202.45 473.549 206.32 475.546L209.329 477.211L207.61 482.316C204.17 492.748 207.287 505.955 215.026 513.501C223.087 521.381 232.33 523.933 242.863 521.048C248.99 519.494 249.742 519.494 250.602 521.048C256.943 532.923 271.131 538.694 284.028 534.698C288.22 533.367 298.861 524.044 299.828 520.715C300.151 519.605 301.655 519.605 307.029 521.048C315.305 523.268 320.679 522.602 328.418 518.273L334.114 515.166L337.446 521.714C341.853 530.148 354.213 545.907 358.62 548.571C361.844 550.457 362.167 550.457 365.821 548.682C371.195 546.129 385.06 532.479 390.004 524.932C392.262 521.492 395.486 515.499 397.098 511.504C399.893 505.067 400.108 503.18 400.108 492.193C400.108 482.205 399.678 478.876 397.743 473.771C394.626 465.558 388.5 456.125 380.976 447.58C376.032 442.031 374.957 440.144 374.957 436.815C374.957 434.595 375.172 432.819 375.495 432.819C375.71 432.819 377.752 434.04 379.901 435.594C387.962 441.254 398.495 442.031 407.309 437.481L411.931 435.039L414.833 438.701C424.936 451.353 445.787 452.352 457.502 440.588C461.587 436.593 464.919 430.156 466.101 424.274C466.961 420.168 467.068 420.057 472.98 419.391C491.896 417.282 503.182 395.974 494.583 378.772L492.326 374.333L496.518 370.338C502.537 364.456 505.331 358.13 505.654 349.807L505.976 342.815L518.122 342.371C531.342 341.927 544.562 338.931 548.216 335.491C550.151 333.715 550.258 332.605 549.721 326.279C547.894 307.635 540.908 291.21 529.944 279.779C518.229 267.682 505.976 263.243 487.49 264.464C482.008 264.908 474.914 265.906 471.69 266.905C466.316 268.459 465.456 268.459 461.802 266.794C459.545 265.685 457.717 264.464 457.717 264.02C457.717 263.576 459.33 262.577 461.372 261.911C465.778 260.468 473.087 252.589 475.452 246.818C476.312 244.598 477.064 240.714 477.064 238.051V233.39L483.405 231.614C491.574 229.283 498.023 224.067 502.214 216.41C505.009 211.194 505.546 209.307 505.546 201.982C505.546 192.327 503.182 186.667 496.518 180.119L492.326 176.124L494.906 170.464C499.527 160.254 497.593 147.603 490.177 139.39C486.092 134.84 477.494 130.956 471.582 130.956H466.638L465.886 126.405C465.456 123.964 464.274 119.969 463.091 117.749C460.942 113.199 453.848 106.096 449.549 104.099C446.324 102.545 446.324 102.434 449.764 97.2179C456.643 86.6749 464.059 64.701 462.124 60.3728C460.082 55.8226 442.992 49.3858 428.59 47.8321C398.603 44.7247 377.644 59.5959 367.863 91.0031C364.532 101.657 363.887 102.767 359.91 104.875L357.115 106.429L357.008 99.5485C357.008 95.7752 356.255 90.8921 355.396 88.6725C353.246 83.6784 347.55 76.9087 343.68 74.9111L340.671 73.2464L342.39 68.1413C345.83 57.7093 342.713 44.5027 334.974 36.9561C326.913 29.0766 317.67 26.5241 307.029 29.4095C301.978 30.7413 300.151 30.8523 299.828 29.8534C299.613 29.0766 297.678 26.5241 295.529 24.0825C288.22 15.6481 276.827 12.4297 265.972 15.7591C261.78 17.0908 251.139 26.4131 250.172 29.7425C249.849 30.8523 248.345 30.8523 242.971 29.4095C234.695 27.1899 229.321 27.8558 221.475 32.184L215.886 35.2914L213.521 30.7413C206.535 16.314 192.455 7.28129e-06 187.081 7.28129e-06C186.543 7.28129e-06 183.964 1.55372 181.384 3.44037ZM178.052 55.4897C176.87 73.4683 175.688 88.4505 175.473 88.6725C174.828 89.4493 170.959 83.9004 167.627 77.6855C161.5 65.6998 160.855 53.936 165.907 42.5051C169.131 35.1805 178.912 21.308 179.987 22.5288C180.202 22.7508 179.342 37.511 178.052 55.4897ZM199.226 32.295C207.18 46.3894 208.147 59.263 202.235 72.3585C199.226 78.7953 190.413 90.5591 189.338 89.5603C189.123 89.2274 189.875 75.244 191.165 58.2642C192.347 41.3953 193.315 26.746 193.315 25.8582C193.315 23.1947 195.249 25.3033 199.226 32.295ZM282.846 30.5193C285.426 32.406 288.973 37.733 288.973 39.8416C288.973 40.7294 287.253 44.0588 285.211 47.2772C280.804 54.0469 277.58 61.5935 276.505 67.1425C276.182 69.2511 275.537 71.0268 275.107 71.0268C274.678 71.0268 273.28 67.3645 271.991 62.9253C270.808 58.5971 267.691 51.8274 265.327 48.0541C261.887 42.727 261.135 40.6184 261.672 38.2879C262.532 34.7365 267.799 29.1876 271.023 28.5217C274.463 27.7448 280.482 28.7437 282.846 30.5193ZM243.293 43.9478C249.42 46.9443 257.588 59.263 259.953 69.0291L261.242 74.0232L255.761 79.6832C250.494 85.1212 250.279 85.2321 245.873 84.2333C232.653 81.1259 219.11 68.2523 219.11 58.5971C219.11 54.0469 223.624 46.5003 227.708 44.2808C232.33 41.7282 238.564 41.6173 243.293 43.9478ZM321.969 44.0588C329.17 47.4992 332.395 56.7104 329.278 64.9229C327.236 70.5829 320.034 77.1306 311.221 81.4588C302.193 85.787 300.043 85.5651 294.024 79.4612C289.08 74.5781 288.865 73.9122 289.51 70.1389C291.015 61.4826 300.473 47.0552 306.492 43.9478C311.006 41.7282 317.24 41.7282 321.969 44.0588ZM434.609 62.5923L439.983 63.9241L418.487 74.8001C406.664 80.793 393.444 87.3407 389.145 89.4493C381.513 93.1117 381.299 93.1117 382.051 90.7811C383.663 85.3431 387.21 79.3502 391.832 74.2452C400.645 64.479 408.169 61.1496 421.174 61.2606C425.581 61.2606 431.707 61.8155 434.609 62.5923ZM442.133 83.6784C438.156 92.2238 429.88 101.324 422.464 105.097C417.52 107.539 414.725 108.205 406.771 108.538C400.43 108.76 395.271 108.316 392.154 107.317L387.317 105.763L415.8 91.336C431.492 83.4565 444.39 77.0197 444.605 77.2416C444.82 77.3526 443.745 80.2381 442.133 83.6784ZM238.027 95.8861C241.573 97.1069 245.013 98.1057 245.765 98.3277C248.345 98.9936 246.948 100.769 243.293 101.435C237.597 102.545 230.073 106.096 224.162 110.535C220.4 113.421 218.358 114.198 216.638 113.643C205.03 109.87 202.343 94.9983 212.016 87.6737C216.423 84.3443 218.358 84.6772 225.129 89.3384C228.783 91.8909 234.587 94.7764 238.027 95.8861ZM280.911 85.898C287.79 88.8944 291.122 99.3265 287.575 106.54C285.641 110.646 279.622 114.309 275 114.309C270.378 114.309 264.359 110.646 262.425 106.54C258.985 99.4375 262.21 89.0054 268.874 86.009C273.28 84.0114 276.29 84.0114 280.911 85.898ZM338.414 88.0066C343.895 92.4458 345.4 100.991 341.746 107.206C340.671 109.093 337.984 111.423 335.834 112.533L331.857 114.42L325.516 109.981C318.745 105.43 308.749 100.991 304.987 100.991C301.333 100.991 303.375 98.3277 307.782 97.4399C312.511 96.3301 323.474 90.8921 328.096 87.1188C331.32 84.4553 334.437 84.7882 338.414 88.0066ZM201.806 120.191C204.063 122.299 206.642 124.519 207.61 124.963C209.222 125.962 209.222 126.405 207.717 130.956C205.567 137.392 206.212 147.824 209.222 153.928C216.53 168.689 232.33 174.46 248.452 168.023C249.527 167.69 250.279 168.245 250.709 169.576C251.892 173.128 258.985 179.897 264.037 182.228C269.411 184.67 279.084 185.114 284.136 183.116C289.51 181.007 295.314 176.346 297.786 172.129C299.076 169.909 300.258 168.023 300.365 167.801C300.473 167.579 302.838 168.245 305.525 169.133C312.296 171.463 317.777 171.352 324.764 168.689C335.727 164.471 342.498 154.927 343.68 142.054C344.325 134.84 344.433 134.618 350.237 129.291C353.461 126.405 359.265 121.744 363.242 119.081C369.798 114.753 370.765 114.42 373.237 115.64C376.462 117.083 376.677 117.971 374.312 119.969C371.41 122.41 368.293 129.957 367.756 136.061C367.326 140.611 366.681 142.054 365.391 142.054C364.424 142.054 361.307 142.941 358.513 143.94C342.068 150.044 334.437 169.687 342.068 185.89C343.68 189.22 346.69 193.437 348.732 195.213L352.601 198.431L350.129 203.203C346.797 209.862 346.69 221.737 349.914 228.063C354.536 237.052 362.704 242.823 372.378 243.822C377.967 244.487 378.182 244.598 378.826 248.483C381.406 263.132 393.121 273.12 407.846 273.12C413.758 273.12 416.23 272.565 421.174 269.902L427.193 266.683L433.104 268.681C436.221 269.791 443.1 272.787 448.259 275.34C456.105 279.335 457.61 280.445 457.932 283.108L458.362 286.105H450.624C444.712 286.105 441.488 286.66 437.941 288.546L433.104 290.877L429.772 286.993C421.604 277.448 406.556 274.563 394.841 280.334C386.458 284.329 380.546 292.542 378.826 302.086C378.182 306.081 377.859 306.303 374.205 306.303C364.854 306.303 354.751 312.962 349.914 322.284C346.582 328.832 346.69 340.485 350.129 347.254L352.601 352.026L348.732 355.245C346.69 357.021 343.68 361.238 342.068 364.567C335.404 378.772 340.778 397.306 353.568 403.965C356.9 405.74 357.868 407.072 358.943 410.956C360.662 417.726 362.059 427.936 362.059 435.15C362.059 440.588 361.737 441.698 359.48 443.251C356.9 444.916 356.793 444.916 355.611 440.921C354.321 437.148 346.26 427.492 342.498 425.495C340.778 424.496 340.778 424.052 342.283 419.502C344.433 413.065 343.788 402.744 340.778 396.64C333.47 381.88 317.562 375.998 301.548 382.435C300.58 382.768 299.721 382.324 299.291 380.992C298.216 377.663 290.907 370.449 286.285 368.34C281.449 366.01 270.486 365.566 265.649 367.453C260.49 369.45 254.686 374.111 252.214 378.329C250.924 380.548 249.742 382.435 249.635 382.657C249.527 382.879 247.162 382.213 244.475 381.325C237.812 378.994 232.223 379.105 225.344 381.769C214.488 385.986 207.502 395.641 206.32 408.404C205.675 415.618 205.567 415.84 199.763 421.167C196.539 424.052 190.735 428.713 186.758 431.377C180.202 435.705 179.235 436.038 176.763 434.817C173.538 433.374 173.323 432.486 175.688 430.489C178.59 428.047 181.707 420.501 182.244 414.397C182.781 409.736 183.319 408.404 184.716 408.404C188.585 408.404 196.539 404.742 200.623 401.079C210.726 392.201 213.736 376.997 207.932 364.567C206.32 361.238 203.31 357.021 201.268 355.245L197.399 352.026L199.871 347.254C202.988 340.929 203.31 328.721 200.408 322.95C195.787 313.628 187.403 307.635 177.622 306.636C172.033 305.97 171.818 305.859 171.174 301.975C168.594 287.325 156.879 277.448 142.046 277.448C136.135 277.448 133.555 278.114 128.719 280.556L122.807 283.774L116.896 281.777C113.779 280.667 106.9 277.67 101.741 275.118C93.8948 271.123 92.3901 270.013 92.0677 267.349L91.6377 264.353L99.1614 264.464C105.18 264.575 107.975 264.02 111.952 262.022L117.218 259.359L120.335 263.354C127.966 272.898 143.766 276.006 155.266 270.235C163.757 265.906 169.346 258.138 171.281 247.706C171.926 244.376 172.248 244.155 176.44 244.155C185.254 244.044 195.357 237.163 200.086 228.063C203.418 221.737 203.31 209.862 199.871 203.203L197.399 198.431L201.268 195.213C203.31 193.437 206.32 189.22 207.932 185.89C215.133 170.575 209.544 154.261 193.959 144.828C191.487 143.385 189.23 133.064 188.263 119.969C187.618 109.87 187.726 109.537 190.198 107.539L192.777 105.541L195.249 110.979C196.539 113.976 199.548 118.082 201.806 120.191ZM255.976 119.414C260.92 124.297 261.135 124.741 260.49 128.847C259.2 136.727 249.957 151.487 244.475 154.483C231.685 161.586 216.96 151.265 219.54 137.059C220.615 131.067 228.461 122.965 237.704 118.193C247.592 113.088 249.635 113.199 255.976 119.414ZM312.941 118.193C325.086 124.63 332.072 134.618 330.46 143.496C328.525 154.15 315.95 160.032 306.277 154.816C301.118 152.153 292.627 139.39 290.585 131.511L288.758 124.741L293.487 119.636C297.678 114.864 298.538 114.531 302.515 114.753C304.987 114.975 309.716 116.528 312.941 118.193ZM446.862 118.526C450.516 121.189 453.418 127.182 453.418 131.843C453.418 139.279 444.712 156.37 438.801 160.365C436.651 161.808 435.576 161.808 429.342 160.143C421.174 157.924 420.207 156.481 419.347 145.383C418.379 133.064 421.926 121.522 428.053 117.638C433.427 114.087 441.595 114.42 446.862 118.526ZM122.592 118.193C128.074 121.966 130.438 128.847 130.438 140.944C130.438 146.16 129.793 152.153 129.041 154.261C127.859 157.813 127.214 158.368 120.658 160.143C115.713 161.475 113.026 161.697 111.629 160.92C106.04 157.813 96.6893 139.834 96.5819 132.065C96.4744 118.748 111.737 110.535 122.592 118.193ZM165.585 128.847C168.057 131.843 169.561 137.725 168.916 141.277C168.487 143.607 166.659 145.05 160.425 148.268C155.911 150.599 150.322 154.594 147.205 157.702C144.303 160.809 141.616 162.807 141.294 162.252C140.971 161.697 141.509 158.811 142.369 155.815C143.336 152.375 143.873 146.604 143.766 140.056C143.658 130.845 143.873 129.402 145.808 127.404C150.43 122.521 161.178 123.298 165.585 128.847ZM404.192 127.404C406.127 129.402 406.342 130.956 406.234 140.056C406.127 145.938 406.664 152.93 407.524 156.259C408.384 159.477 408.706 162.252 408.384 162.585C407.954 162.807 405.267 160.587 402.472 157.591C399.463 154.483 393.874 150.488 389.36 148.157C381.191 143.94 380.761 143.274 381.299 136.616C382.051 128.403 389.575 122.743 397.636 124.297C400.108 124.741 403.01 126.184 404.192 127.404ZM279.084 139.834C280.052 142.497 282.739 147.603 284.996 151.154C289.832 158.589 289.725 161.364 284.781 166.58C279.299 172.24 270.701 172.129 265.219 166.58C260.49 161.697 260.275 158.589 264.252 152.597C267.476 147.713 272.85 136.394 272.85 134.285C272.85 133.73 273.388 131.954 274.033 130.179L275.322 127.071L276.397 130.956C276.935 133.064 278.224 137.059 279.084 139.834ZM84.1141 144.939C85.0814 145.272 87.3385 148.934 89.2732 152.93C91.2078 156.925 95.3996 163.14 98.5165 166.691C101.741 170.242 103.891 173.128 103.461 173.128C102.923 173.128 98.839 172.351 94.4322 171.352C88.8432 170.131 84.0066 169.798 78.7401 170.353C71.3239 171.019 71.0014 171.019 68.8518 168.134C65.4124 163.695 64.875 158.478 67.1321 153.484C70.464 146.604 78.3101 142.608 84.1141 144.939ZM477.171 146.826C479.214 148.157 481.686 151.265 482.868 153.595C484.588 157.258 484.695 158.368 483.513 162.363C481.363 170.242 479.858 171.241 471.69 170.353C465.456 169.687 458.685 170.464 448.582 172.795C445.465 173.461 445.572 173.239 451.376 166.691C454.708 162.918 458.685 156.925 460.297 153.484C462.017 149.933 464.059 146.382 465.026 145.605C467.713 143.496 473.195 144.051 477.171 146.826ZM188.37 157.591C194.282 160.587 196.861 164.582 197.291 171.352C197.936 179.01 195.142 183.893 188.37 187.555C183.856 189.997 181.814 190.33 172.356 190.33C159.243 190.33 154.621 188.443 154.621 183.005C154.621 181.229 153.869 178.233 153.009 176.457C151.505 173.35 151.505 173.017 154.729 169.354C158.598 164.693 163.435 161.475 171.711 158.035C179.127 154.816 182.781 154.705 188.37 157.591ZM381.728 159.588C385.49 161.364 390.864 165.137 393.659 167.912C398.173 172.351 398.603 173.239 397.528 175.347C396.883 176.568 396.023 179.787 395.593 182.339C394.411 188.887 391.294 190.33 377.644 190.33C368.293 190.33 366.251 189.997 361.63 187.555C354.751 184.004 352.064 179.121 352.709 171.352C353.139 164.582 355.718 160.698 361.522 157.591C366.896 154.705 372.27 155.26 381.728 159.588ZM132.803 173.683C134.093 174.016 136.672 176.124 138.392 178.233C144.088 184.781 142.691 194.325 135.382 199.43C129.901 203.203 123.452 202.87 118.615 198.542C113.349 193.659 111.952 187.888 114.746 181.562C116.788 176.679 119.045 174.792 124.419 173.128C127.214 172.24 128.289 172.351 132.803 173.683ZM430.095 175.014C434.609 177.345 437.726 185.114 436.329 190.662C433.749 200.429 422.571 205.09 414.725 199.541C410.103 196.322 408.276 192.771 408.276 186.778C408.276 183.116 409.029 181.229 411.608 178.122C416.767 172.129 422.679 171.13 430.095 175.014ZM95.5071 185.779C99.2689 187.222 99.9138 188.332 102.708 200.429C103.998 205.978 86.8011 217.409 75.6231 218.407C54.4494 220.183 50.5801 190.441 71.3239 185.225C76.5904 184.004 91.4228 184.337 95.5071 185.779ZM482.975 186.667C493.723 192.549 495.766 205.423 487.382 214.079C483.62 217.852 483.083 218.074 476.204 218.074C470.185 218.074 467.713 217.409 462.017 214.523C458.147 212.525 453.096 208.974 450.731 206.533C446.754 202.204 446.647 201.76 447.722 198.431C448.367 196.433 449.226 193.104 449.656 191.106C450.839 185.446 454.708 184.115 468.465 184.559C475.989 184.781 480.826 185.557 482.975 186.667ZM157.953 202.537C161.285 203.758 166.014 204.202 173.431 204.091L184.179 203.869L186.651 207.531C189.445 211.86 189.768 218.296 187.403 223.068C185.683 226.509 183.211 228.284 177.945 229.838C172.033 231.614 169.884 230.06 165.8 221.626C163.65 217.409 159.566 211.305 156.664 208.086C149.462 200.207 149.677 199.541 157.953 202.537ZM398.603 201.538C398.603 201.871 396.131 204.979 393.121 208.419C390.219 211.749 386.028 217.852 384.093 222.07C379.901 230.615 377.322 231.947 370.121 229.505C361.63 226.62 358.19 215.3 363.457 207.42C364.854 205.312 366.681 203.758 367.433 203.98C371.41 204.868 387.962 203.98 392.154 202.648C397.743 200.762 398.603 200.651 398.603 201.538ZM112.167 221.515C110.984 227.508 110.662 232.613 111.092 237.496C111.737 244.266 111.629 244.931 109.05 247.373C104.965 251.368 97.2268 251.812 92.2826 248.372C87.8759 245.264 85.2964 239.16 86.2637 233.944C86.8011 230.726 87.7684 229.838 94.3248 226.62C98.3016 224.622 104.213 220.516 107.437 217.63C110.662 214.634 113.349 212.303 113.564 212.525C113.779 212.747 113.134 216.743 112.167 221.515ZM151.397 223.179C159.458 236.164 160.425 247.928 153.869 254.365C147.635 260.358 141.509 261.245 134.2 257.472C127.214 253.81 125.064 248.372 125.064 233.611C125.064 219.517 126.569 215.3 131.836 215.3C133.448 215.189 136.242 214.523 137.962 213.746C140.864 212.414 141.509 212.525 144.303 214.523C146.023 215.744 149.14 219.628 151.397 223.179ZM420.207 215.855C424.183 216.632 425.903 223.512 425.258 236.164C424.613 247.262 422.464 253.033 417.735 256.473C414.295 259.026 407.739 260.358 403.547 259.248C399.033 258.138 393.336 252.145 392.154 247.373C390.004 239.382 395.593 225.066 404.084 216.299L408.061 212.192L412.79 213.746C415.262 214.523 418.702 215.522 420.207 215.855ZM442.67 217.519C445.787 220.516 451.698 224.622 455.675 226.62C462.984 230.282 464.166 231.725 464.166 237.496C464.166 241.491 460.512 247.04 456.535 249.26C452.236 251.479 445.142 250.924 441.165 247.928C438.371 245.93 438.263 245.486 438.908 238.051C439.446 231.17 438.801 225.177 436.651 214.967C436.221 213.302 436.221 211.971 436.436 211.971C436.651 211.971 439.446 214.412 442.67 217.519ZM49.1828 223.956C60.2534 227.286 69.6042 237.385 74.5483 251.257C76.053 255.474 77.1278 259.026 77.0204 259.248C76.8054 259.359 64.6601 251.257 50.0427 241.047L23.4949 222.514L27.5792 221.848C33.1682 220.96 42.3041 221.848 49.1828 223.956ZM44.4537 253.588L69.9266 271.344L63.3703 272.232C49.1828 274.23 32.8457 267.682 25.8595 257.25C21.5603 250.813 17.476 242.157 16.5087 237.607C15.5413 233.057 12.6394 231.392 44.4537 253.588ZM505.439 279.779C511.888 281.555 520.486 287.769 524.141 293.207C530.697 303.196 536.393 317.845 532.846 315.625C531.987 315.181 519.841 306.747 505.761 296.981L480.181 279.113L484.265 278.336C489.102 277.559 499.527 278.225 505.439 279.779ZM149.14 292.431C153.439 294.65 157.416 299.977 158.276 304.416C159.673 312.185 151.29 330.829 143.981 336.156C141.401 338.043 140.756 338.154 137.532 336.711C135.597 335.823 132.588 335.158 130.976 335.158C126.569 335.158 125.064 330.385 125.064 316.291C125.064 306.636 125.494 303.861 127.321 300.199C131.298 292.209 141.831 288.435 149.14 292.431ZM415.8 292.985C422.786 296.648 424.936 302.086 424.936 316.846C424.936 330.94 423.431 335.158 418.164 335.158C416.552 335.269 413.865 335.934 412.038 336.711C409.136 338.043 408.491 337.932 405.697 335.934C397.743 330.164 389.897 311.408 392.047 303.196C393.121 299.089 396.883 294.539 401.29 292.098C404.622 290.1 411.178 290.544 415.8 292.985ZM502.644 311.297L526.613 327.944L521.991 328.61C515.65 329.609 503.289 327.944 497.27 325.28C487.705 321.063 480.073 311.963 475.452 299.089C473.947 295.094 472.765 291.543 472.765 291.21C472.765 290.433 471.905 289.878 502.644 311.297ZM108.835 302.53C111.629 304.527 111.737 304.971 111.092 312.407C110.662 317.623 110.984 323.061 112.167 328.943C113.134 333.715 113.779 337.821 113.456 338.043C113.241 338.265 110.554 335.934 107.33 332.938C104.213 329.942 98.3016 325.835 94.3248 323.838C87.0161 320.175 85.8338 318.733 85.8338 312.962C85.8338 308.855 89.7031 303.085 93.6799 301.198C97.9791 299.2 105.073 299.755 108.835 302.53ZM457.825 302.197C462.124 305.193 464.704 311.408 463.736 316.513C463.199 319.731 462.232 320.619 455.783 323.838C451.698 325.835 445.68 329.942 442.348 333.049C438.908 336.156 436.221 338.265 436.221 337.71C436.221 337.266 436.974 333.049 437.941 328.499C439.016 322.95 439.338 317.845 438.908 312.962C438.263 306.303 438.371 305.526 440.735 303.417C445.572 298.867 452.343 298.423 457.825 302.197ZM182.889 322.062C188.585 325.169 190.735 336.156 186.866 342.593L184.716 346.256H173.646C166.982 346.256 160.425 346.921 157.309 347.92C154.407 348.808 151.827 349.252 151.612 349.03C151.29 348.808 153.654 345.701 156.664 342.26C159.781 338.82 163.972 332.605 165.907 328.388C167.949 324.282 170.421 320.619 171.496 320.397C173.968 319.62 180.309 320.619 182.889 322.062ZM377.967 320.286C379.686 320.841 381.621 323.394 384.2 328.832C386.35 333.16 390.542 339.264 393.444 342.593C396.453 345.812 398.71 348.697 398.495 348.919C398.28 349.252 395.378 348.697 392.154 347.809C388.607 346.81 382.158 346.256 376.032 346.366L365.821 346.588L363.457 342.926C360.555 338.598 360.232 332.161 362.597 327.389C364.317 324.06 366.789 322.173 371.625 320.619C375.28 319.509 375.172 319.509 377.967 320.286ZM88.0909 335.934C91.8527 337.932 96.9043 341.483 99.2689 343.925C103.246 348.253 103.353 348.697 102.278 352.026C101.633 354.024 100.774 357.353 100.344 359.351C99.1614 365.011 94.5397 366.676 80.9971 366.01C66.4872 365.344 60.4683 361.904 58.1037 352.692C56.1691 345.146 60.2534 335.934 67.0246 332.827C71.2164 330.94 80.9971 332.383 88.0909 335.934ZM483.298 333.382C495.658 340.041 495.443 357.021 482.975 363.79C478.354 366.232 460.619 366.898 455.03 364.789C450.624 363.235 450.194 362.348 447.292 350.029C446.969 348.364 447.937 346.477 450.946 343.481C460.297 334.159 475.667 329.276 483.298 333.382ZM135.382 351.028C139.897 354.135 141.724 357.686 141.724 363.679C141.724 369.561 136.995 375.554 131.083 377.441C127.536 378.551 126.247 378.329 121.947 376.442C112.489 372.003 110.339 359.906 117.756 352.692C121.41 349.252 122.807 348.697 127.859 348.586C130.223 348.475 133.125 349.474 135.382 351.028ZM432.029 352.47C436.759 357.131 437.941 362.791 435.254 369.117C433.427 373.113 432.137 374.555 428.053 376.442C423.753 378.329 422.464 378.551 418.917 377.441C413.005 375.554 408.276 369.561 408.276 363.679C408.276 357.686 410.103 354.135 414.725 350.917C419.884 347.254 427.408 347.92 432.029 352.47ZM188.585 363.013C195.249 366.454 197.936 371.337 197.291 379.105C196.861 385.986 194.282 389.87 188.156 392.978C184.609 394.753 182.459 395.197 179.235 394.643C172.248 393.533 161.823 387.984 156.341 382.657L151.397 377.663L153.009 373.667C153.869 371.448 154.621 368.451 154.621 367.009C154.621 365.455 155.266 363.79 156.019 363.124C161.07 358.796 180.309 358.685 188.585 363.013ZM391.939 362.237C394.626 363.679 395.378 364.789 395.378 367.453C395.378 369.228 396.131 372.225 396.991 374C398.603 377.219 398.495 377.441 394.734 381.769C390.327 386.763 378.074 393.422 370.98 394.643C367.541 395.197 365.391 394.753 361.844 392.978C355.933 389.981 353.246 386.097 352.601 379.549C351.741 370.005 356.793 363.346 367.004 360.794C373.13 359.129 387.855 360.017 391.939 362.237ZM467.713 379.993C478.569 380.104 479.536 380.326 481.471 382.657C484.588 386.763 485.125 392.09 482.868 396.973C479.536 403.854 471.69 407.849 465.886 405.518C464.919 405.186 462.662 401.523 460.727 397.528C458.792 393.533 454.708 387.429 451.591 383.878C448.474 380.437 446.217 377.33 446.539 376.997C446.862 376.664 449.226 377.108 451.591 378.107C454.493 379.216 460.404 379.882 467.713 379.993ZM98.5165 383.988C95.2921 387.651 91.3153 393.533 89.7031 396.973C86.1562 404.409 84.4365 406.184 80.2448 406.184C73.7959 406.184 67.1321 400.302 65.9498 393.533C65.1975 389.87 67.562 382.546 69.9266 380.992C70.679 380.548 76.3755 380.104 82.6094 379.993C88.8432 379.882 95.0771 379.327 96.5819 378.661C98.0866 377.996 100.451 377.441 101.741 377.441C103.998 377.33 103.676 377.996 98.5165 383.988ZM282.309 381.769C284.243 382.99 286.608 385.764 287.575 387.873C289.187 391.313 289.187 392.201 287.898 394.31C281.879 404.187 279.299 409.292 277.58 415.063C275.43 422.387 274.355 423.386 273.28 418.614C272.098 412.621 268.229 403.965 264.682 398.749C260.49 392.756 260.383 391.868 262.64 387.207C266.294 380.104 275.537 377.552 282.309 381.769ZM160.64 402.3C169.131 406.628 170.314 408.737 168.379 415.729C166.337 423.386 159.888 427.492 152.149 426.161C144.841 424.829 143.551 422.387 143.766 410.402C143.873 404.52 143.336 397.528 142.476 394.31C141.616 391.091 141.186 388.206 141.509 387.873C141.831 387.54 144.518 389.759 147.42 392.867C150.537 395.974 156.234 400.08 160.64 402.3ZM407.631 394.532C406.664 398.083 406.127 403.854 406.234 410.402C406.449 422.498 405.267 424.718 397.636 426.161C389.575 427.714 382.051 422.054 381.299 413.842C380.761 407.183 381.191 406.517 389.467 402.3C394.089 399.859 399.57 395.974 402.58 392.867C405.482 389.87 408.061 387.762 408.491 388.206C408.921 388.65 408.599 391.535 407.631 394.532ZM122.592 390.869C128.504 392.312 129.793 394.532 130.653 405.075C132.158 423.164 125.172 435.261 113.134 435.261C98.624 435.261 92.82 421.389 100.559 404.964C105.073 395.53 111.952 387.984 115.176 388.872C116.466 389.315 119.798 390.203 122.592 390.869ZM442.24 393.533C448.474 400.413 453.848 413.731 453.096 420.39C451.269 437.481 428.805 440.921 421.926 425.162C419.347 419.058 418.702 402.522 420.959 396.196C422.141 392.645 422.894 391.979 428.483 390.425C437.296 387.984 437.296 387.984 442.24 393.533ZM244.475 395.974C249.849 398.971 257.803 411.622 259.953 420.723L261.135 425.717L255.976 431.044C251.247 435.927 250.494 436.371 246.733 435.816C237.167 434.484 222.334 422.942 219.97 414.952C215.778 400.302 230.933 388.539 244.475 395.974ZM322.507 395.752C328.955 399.193 332.18 407.405 329.923 415.063C328.31 420.501 319.819 428.713 311.221 432.819C302.193 437.259 300.151 437.148 294.024 431.044C289.08 426.161 288.865 425.717 289.51 421.61C290.8 413.731 300.043 398.971 305.525 395.974C311.114 392.867 316.703 392.756 322.507 395.752ZM224.592 440.477C231.148 445.027 241.251 449.466 244.905 449.466C247.27 449.466 247.915 451.575 245.765 452.13C238.779 453.905 231.363 457.235 225.344 461.119L218.25 465.891L214.058 463.783C203.633 458.456 203.525 443.251 213.843 438.035C215.886 437.037 217.713 436.149 217.928 436.149C218.143 436.149 221.152 438.146 224.592 440.477ZM282.631 438.701C287.145 441.809 288.973 445.36 288.973 451.242C288.973 457.568 285.318 462.895 279.514 465.003C263.715 470.663 253.504 447.358 267.799 438.368C272.42 435.372 278.117 435.594 282.631 438.701ZM338.199 439.256C345.722 444.361 345.615 456.902 337.984 462.784C334.007 465.78 331.642 465.891 328.096 463.228C323.044 459.343 312.403 454.016 307.782 453.018C303.375 452.13 301.333 449.466 304.987 449.466C308.749 449.466 318.207 445.249 324.979 440.699C331.642 436.038 333.255 435.927 338.199 439.256ZM158.383 443.251L162.683 444.694L134.2 459.121C118.508 467.001 105.61 473.438 105.395 473.216C104.32 472.439 111.307 459.898 115.498 455.126C124.097 445.249 131.728 441.809 145.486 441.809C150.215 441.809 156.019 442.475 158.383 443.251ZM166.122 464.338C162.468 472.55 153.654 481.983 146.238 485.757C139.037 489.419 125.387 490.418 115.928 487.976L110.017 486.422L120.228 481.428C125.817 478.654 138.929 472.106 149.247 466.779C159.566 461.563 168.164 457.568 168.379 457.79C168.594 458.012 167.627 461.008 166.122 464.338ZM358.835 492.193C357.653 509.062 356.685 523.711 356.685 524.599C356.685 527.263 354.751 525.154 350.774 518.052C342.928 504.29 341.961 490.862 347.872 478.099C350.774 471.662 359.587 459.898 360.662 460.897C360.877 461.23 360.125 475.213 358.835 492.193ZM378.934 467.001C390.972 485.757 390.542 501.183 377.322 519.605C375.065 522.824 372.27 526.264 371.303 527.152C369.476 528.595 369.368 528.262 370.013 521.603C370.98 510.838 373.882 468.888 373.882 465.003C373.882 463.228 374.205 461.674 374.742 461.674C375.172 461.674 376.999 464.005 378.934 467.001ZM260.49 480.319C258.878 489.086 249.42 503.513 243.293 506.51C229.643 513.279 215.241 500.184 220.615 485.757C223.409 478.099 237.274 467.778 246.733 466.224C250.387 465.558 251.139 466.002 255.976 470.996C260.813 475.99 261.135 476.656 260.49 480.319ZM310.361 468.555C321.647 473.438 330.89 483.981 330.89 491.86C330.89 496.411 326.376 503.957 322.292 506.177C314.123 510.727 305.525 508.063 298.861 499.074C293.594 491.971 291.552 487.976 290.047 481.428L288.758 476.434L294.024 470.885C299.828 464.67 301.333 464.448 310.361 468.555ZM278.009 487.421C279.192 491.86 282.309 498.63 284.781 502.514C289.832 510.394 289.832 512.835 284.781 518.052C279.192 523.822 270.808 523.822 265.219 518.052C260.275 512.946 260.168 510.283 264.682 503.402C269.196 496.411 272.42 488.975 273.495 483.315C273.818 481.206 274.463 479.431 274.893 479.431C275.322 479.431 276.72 483.093 278.009 487.421Z" fill="#000000"/>
<path d="M222.63 326.16C214.397 326.16 207.55 323.95 202.09 319.53C196.11 314.677 193.12 308.263 193.12 300.29C193.12 292.49 195.417 286.467 200.01 282.22C204.517 277.973 210.713 275.85 218.6 275.85C223.367 275.85 227.397 277.323 230.69 280.27C234.243 283.303 236.02 287.117 236.02 291.71C236.02 295.783 234.59 299.25 231.73 302.11C229.043 304.97 225.577 306.4 221.33 306.4C217.257 306.4 215.22 305.88 215.22 304.84C215.22 304.753 215.263 304.623 215.35 304.45C215.523 304.277 215.74 304.19 216 304.19C216 304.19 216.173 304.233 216.52 304.32C216.867 304.407 217.387 304.58 218.08 304.84C219.64 305.273 220.81 305.49 221.59 305.49C225.23 305.49 228.263 304.017 230.69 301.07C233.203 298.297 234.46 295.133 234.46 291.58C234.46 286.9 232.553 283.173 228.74 280.4C225.533 278.06 221.417 276.89 216.39 276.89C209.977 276.89 204.733 279.1 200.66 283.52C196.76 287.767 194.81 293.183 194.81 299.77C194.81 307.223 197.323 313.29 202.35 317.97C207.29 322.39 213.487 324.6 220.94 324.6C233.853 324.6 245.423 319.227 255.65 308.48C258.337 305.533 261.543 301.33 265.27 295.87C268.997 290.41 273.2 283.65 277.88 275.59C285.767 262.243 294.26 252.45 303.36 246.21C290.36 242.223 283.73 240.23 283.47 240.23C275.67 238.063 268.91 236.98 263.19 236.98C255.303 236.98 248.717 239.017 243.43 243.09C236.93 248.29 233.68 254.79 233.68 262.59C233.68 267.79 235.327 272.123 238.62 275.59C242.087 278.883 246.377 280.53 251.49 280.53C257.383 280.53 262.367 278.623 266.44 274.81C270.6 271.083 272.81 266.317 273.07 260.51C273.243 259.383 273.503 258.82 273.85 258.82C274.37 258.82 274.63 259.427 274.63 260.64C274.63 266.793 272.203 271.95 267.35 276.11C262.67 280.01 257.21 281.96 250.97 281.96C244.99 281.96 239.833 280.053 235.5 276.24C230.993 272.253 228.74 267.27 228.74 261.29C228.74 257.217 229.823 253.317 231.99 249.59C234.157 245.863 237.017 242.96 240.57 240.88C246.983 237.327 254.35 235.55 262.67 235.55C268.997 235.55 276.19 236.59 284.25 238.67C285.983 239.103 288.583 239.84 292.05 240.88C295.517 241.92 299.893 243.307 305.18 245.04C311.073 241.4 316.88 239.58 322.6 239.58C329.447 239.58 332.87 241.357 332.87 244.91C332.87 246.73 331.483 248.117 328.71 249.07C326.63 249.763 324.463 250.11 322.21 250.11C318.397 250.11 313.023 249.07 306.09 246.99C296.99 253.577 289.45 264.757 283.47 280.53H315.06C318.527 274.897 322.123 269.783 325.85 265.19C332.003 257.563 337.507 251.8 342.36 247.9C347.3 244 351.633 242.05 355.36 242.05H355.88C357.873 242.05 359.433 242.743 360.56 244.13C361.687 245.517 362.25 247.163 362.25 249.07C362.25 251.583 361.34 254.27 359.52 257.13V257C359.52 256.653 359.39 256.74 359.13 257.26C358.87 257.693 358.523 257.91 358.09 257.91C358.003 257.91 357.96 257.823 357.96 257.65C357.96 257.303 358.177 256.957 358.61 256.61C360.343 253.663 361.21 251.107 361.21 248.94C361.21 245.04 359.477 243.09 356.01 243.09C350.81 243.09 344.18 248.463 336.12 259.21C329.013 268.657 322.513 279.62 316.62 292.1C310.813 304.493 307.91 313.333 307.91 318.62C307.91 321.133 308.647 322.39 310.12 322.39C310.553 322.39 311.117 322.217 311.81 321.87C316.837 319.877 321.69 315.413 326.37 308.48V308.61C326.37 308.957 326.457 308.913 326.63 308.48C326.89 307.96 327.193 307.657 327.54 307.57C327.713 307.657 327.8 307.83 327.8 308.09C327.8 308.437 327.713 308.697 327.54 308.87C326.067 310.863 324.767 312.553 323.64 313.94C322.6 315.327 321.69 316.367 320.91 317.06C319.61 318.447 318.223 319.66 316.75 320.7C315.363 321.653 313.933 322.477 312.46 323.17C311.68 323.517 310.943 323.777 310.25 323.95C309.557 324.123 308.907 324.21 308.3 324.21C304.487 324.21 302.58 321.047 302.58 314.72C302.58 305.793 306.437 294.873 314.15 281.96H282.95C277.663 295.567 270.947 305.707 262.8 312.38C257.773 316.367 252.053 319.66 245.64 322.26C239.313 324.86 232.293 326.16 224.58 326.16H222.63ZM322.34 248.94C324.16 248.94 325.937 248.637 327.67 248.03C330.183 247.25 331.44 246.21 331.44 244.91C331.44 242.31 328.927 241.01 323.9 241.01C318.18 241.01 312.807 242.613 307.78 245.82C314.453 247.9 319.307 248.94 322.34 248.94Z" fill="black"/>
</svg>
